<?xml version="1.0" encoding="utf-8"?>
<!-- Generator: Adobe Illustrator 24.0.2, SVG Export Plug-In . SVG Version: 6.00 Build 0)  -->
<svg version="1.1" id="Слой_1" xmlns="http://www.w3.org/2000/svg" xmlns:xlink="http://www.w3.org/1999/xlink" x="0px" y="0px"
	 viewBox="0 0 52.1 52.1" style="enable-background:new 0 0 52.1 52.1;" xml:space="preserve">
<style type="text/css">
	.st0{display:none;fill:#4C4C4C;}
	.st1{display:none;}
</style>
<path class="st0" d="M2.7-2.6C0.7-2.6-0.9-1-0.9,1v7.1c0,2,1.6,3.6,3.6,3.6h17.8c2,0,3.6-1.6,3.6-3.6V1c0-2-1.6-3.6-3.6-3.6H2.7z"/>
<path class="st0" d="M31.6-2.6C29.6-2.6,28-1,28,1v7.1c0,2,1.6,3.6,3.6,3.6h17.8c2,0,3.6-1.6,3.6-3.6V1c0-2-1.6-3.6-3.6-3.6H31.6z"
	/>
<path class="st0" d="M2.6,37.1c-2,0-3.6,1.6-3.6,3.6v7.1c0,2,1.6,3.6,3.6,3.6h17.8c2,0,3.6-1.6,3.6-3.6v-7.1c0-2-1.6-3.6-3.6-3.6
	H2.6z"/>
<path class="st1" d="M2.6,17.3c-2,0-3.6,1.6-3.6,3.6V28c0,2,1.6,3.6,3.6,3.6H50c2,0,3.6-1.6,3.6-3.6v-7.1c0-2-1.6-3.6-3.6-3.6H2.6z"
	/>
<path class="st0" d="M31.6,37.1c-2,0-3.6,1.6-3.6,3.6v7.1c0,2,1.6,3.6,3.6,3.6h17.8c2,0,3.6-1.6,3.6-3.6v-7.1c0-2-1.6-3.6-3.6-3.6
	H31.6z"/>
<path d="M5.2,0h41.7c2.9,0,5.2,2.3,5.2,5.2v31.3c0,2.9-2.3,5.2-5.2,5.2H36.5L26.1,52.1L15.6,41.7H5.2c-2.9,0-5.2-2.3-5.2-5.2V5.2
	C0,2.3,2.3,0,5.2,0 M7.8,7.8V13h36.5V7.8H7.8 M7.8,18.2v5.2h26.1v-5.2H7.8 M7.8,28.7v5.2h31.3v-5.2H7.8z"/>
</svg>
