<?xml version="1.0" encoding="utf-8"?>
<!-- Generator: Adobe Illustrator 24.0.2, SVG Export Plug-In . SVG Version: 6.00 Build 0)  -->
<svg version="1.1" id="Capa_1" xmlns="http://www.w3.org/2000/svg" xmlns:xlink="http://www.w3.org/1999/xlink" x="0px" y="0px"
	 viewBox="0 0 303.3 485.2" style="enable-background:new 0 0 303.3 485.2;" xml:space="preserve">
<style type="text/css">
	.st0{fill:#4C4C4C;}
</style>
<g>
	<path d="M272.9,0H30.3C13.6,0,0,13.6,0,30.3v424.6c0,16.8,13.6,30.3,30.3,30.3h242.6c16.8,0,30.3-13.6,30.3-30.3V30.3
		C303.3,13.6,289.7,0,272.9,0z M98.6,30.3h106.1c4.2,0,7.6,3.4,7.6,7.6c0,4.2-3.4,7.6-7.6,7.6H98.6c-4.2,0-7.6-3.4-7.6-7.6
		C91,33.7,94.4,30.3,98.6,30.3z M151.6,470c-12.6,0-22.7-10.2-22.7-22.7c0-12.6,10.2-22.7,22.7-22.7c12.6,0,22.7,10.2,22.7,22.7
		C174.4,459.9,164.2,470,151.6,470z M272.9,409.4H30.3V75.8h242.6L272.9,409.4L272.9,409.4z"/>
</g>
<path class="st0" d="M62.9,117.9c-6.9,0-12.5,5.6-12.5,12.5v25.1c0,6.9,5.6,12.5,12.5,12.5h62.6c6.9,0,12.5-5.6,12.5-12.5v-25.1
	c0-6.9-5.6-12.5-12.5-12.5H62.9z"/>
<path class="st0" d="M62.9,193.1c-6.9,0-12.5,5.6-12.5,12.5v25.1c0,6.9,5.6,12.5,12.5,12.5h62.6c6.9,0,12.5-5.6,12.5-12.5v-25.1
	c0-6.9-5.6-12.5-12.5-12.5H62.9z"/>
<path class="st0" d="M62.9,268.2c-6.9,0-12.5,5.6-12.5,12.5v25.1c0,6.9,5.6,12.5,12.5,12.5h62.6c6.9,0,12.5-5.6,12.5-12.5v-25.1
	c0-6.9-5.6-12.5-12.5-12.5H62.9z"/>
<path class="st0" d="M175.7,117.9c-6.9,0-12.5,5.6-12.5,12.5v25.1c0,6.9,5.6,12.5,12.5,12.5h62.6c6.9,0,12.5-5.6,12.5-12.5v-25.1
	c0-6.9-5.6-12.5-12.5-12.5H175.7z"/>
<path class="st0" d="M175.7,193.1c-6.9,0-12.5,5.6-12.5,12.5v25.1c0,6.9,5.6,12.5,12.5,12.5h62.6c6.9,0,12.5-5.6,12.5-12.5v-25.1
	c0-6.9-5.6-12.5-12.5-12.5H175.7z"/>
</svg>
