<?xml version="1.0" encoding="utf-8"?>
<!-- Generator: Adobe Illustrator 24.0.2, SVG Export Plug-In . SVG Version: 6.00 Build 0)  -->
<svg version="1.1" id="Слой_1" xmlns="http://www.w3.org/2000/svg" xmlns:xlink="http://www.w3.org/1999/xlink" x="0px" y="0px"
	 viewBox="0 0 16 20" style="enable-background:new 0 0 16 20;" xml:space="preserve">
<style type="text/css">
	.st0{fill-rule:evenodd;clip-rule:evenodd;}
	.st1{fill:#FFFFFF;}
	.st2{font-family:'MyriadPro-Bold';}
	.st3{font-size:5px;}
</style>
<path class="st0" d="M16,7C16,7,16,6.9,16,7c0-0.1,0-0.2-0.1-0.3l0,0c0,0,0,0,0-0.1s-0.1-0.2-0.2-0.3l-6-6C9.6,0.2,9.5,0.1,9.4,0.1
	c0,0,0,0-0.1,0l0,0C9.2,0,9.2,0,9.1,0l0,0l0,0H2C0.9,0,0,0.9,0,2v16c0,1.1,0.9,2,2,2h12c1.1,0,2-0.9,2-2V7L16,7z M9,2l5,5H9V2z"/>
<text transform="matrix(1 0 0 1 1.0638 5.5052)" class="st1 st2 st3">&lt;&gt;</text>
<path class="st1" d="M5.2,14.9c-1.2,0-2.2-1-2.2-2.2s1-2.2,2.2-2.2s2.2,1,2.2,2.2l0,0.3c0,2.4-1.9,4.3-4.3,4.3v-1.2
	c0.8,0,1.6-0.3,2.2-0.9c0.1-0.1,0.2-0.2,0.3-0.4C5.5,14.9,5.3,14.9,5.2,14.9L5.2,14.9L5.2,14.9L5.2,14.9z M10.8,14.9
	c-1.2,0-2.2-1-2.2-2.2s1-2.2,2.2-2.2s2.2,1,2.2,2.2l0,0.3c0,2.4-1.9,4.3-4.3,4.3v-1.2c0.8,0,1.6-0.3,2.2-0.9
	c0.1-0.1,0.2-0.2,0.3-0.4C11,14.9,10.9,14.9,10.8,14.9L10.8,14.9L10.8,14.9L10.8,14.9z"/>
</svg>
