<?xml version="1.0" encoding="utf-8"?>
<!-- Generator: Adobe Illustrator 24.0.2, SVG Export Plug-In . SVG Version: 6.00 Build 0)  -->
<svg version="1.1" id="Слой_1" xmlns="http://www.w3.org/2000/svg" xmlns:xlink="http://www.w3.org/1999/xlink" x="0px" y="0px"
	 viewBox="0 0 16 20" style="enable-background:new 0 0 16 20;" xml:space="preserve">
<style type="text/css">
	.st0{fill-rule:evenodd;clip-rule:evenodd;}
	.st1{fill:#FFFFFF;}
	.st2{font-family:'MyriadPro-Bold';}
	.st3{font-size:5px;}
</style>
<path class="st0" d="M16,7C16,7,16,6.9,16,7c0-0.1,0-0.2-0.1-0.3l0,0c0,0,0,0,0-0.1s-0.1-0.2-0.2-0.3l-6-6C9.6,0.2,9.5,0.1,9.4,0.1
	c0,0,0,0-0.1,0l0,0C9.2,0,9.2,0,9.1,0l0,0l0,0H2C0.9,0,0,0.9,0,2v16c0,1.1,0.9,2,2,2h12c1.1,0,2-0.9,2-2V7L16,7z M9,2l5,5H9V2z"/>
<text transform="matrix(1 0 0 1 1.0638 5.5052)" class="st1 st2 st3">&lt;&gt;</text>
<path class="st1" d="M4.8,15.8l0.3-0.3c0.1-0.1,0.1-0.1,0.1-0.2v-0.1C5.2,15.1,5.1,15,5,15H4c-0.1,0-0.1,0.1-0.1,0.1v0.3
	c0,0.1,0.1,0.1,0.1,0.1h0.4c-0.1,0.1-0.1,0.1-0.2,0.2l-0.1,0.1c-0.1,0.1-0.1,0.2,0,0.2l0,0c0,0.1,0.1,0.1,0.2,0.1h0.1
	c0.2,0,0.3,0,0.3,0.1c0,0.1-0.1,0.1-0.2,0.1c-0.1,0-0.2,0-0.3-0.1C4,16.4,4,16.4,3.9,16.5l-0.1,0.2c-0.1,0.1-0.1,0.2,0,0.3
	C4,17,4.2,17.1,4.5,17.1c0.6,0,0.8-0.4,0.8-0.7C5.3,16.1,5.1,15.9,4.8,15.8z M12,12.9H6.7c-0.1,0-0.3,0.1-0.3,0.3v0.5
	c0,0.1,0.1,0.3,0.3,0.3H12c0.1,0,0.3-0.1,0.3-0.3v-0.5C12.2,13,12.1,12.9,12,12.9z M12,10.3H6.7c-0.1,0-0.3,0.1-0.3,0.3v0.5
	c0,0.1,0.1,0.3,0.3,0.3H12c0.1,0,0.3-0.1,0.3-0.3v-0.5C12.2,10.4,12.1,10.3,12,10.3z M12,15.5H6.7c-0.1,0-0.3,0.1-0.3,0.3v0.5
	c0,0.1,0.1,0.3,0.3,0.3H12c0.1,0,0.3-0.1,0.3-0.3v-0.5C12.2,15.6,12.1,15.5,12,15.5z M4,11.9h1.1c0.1,0,0.1-0.1,0.1-0.1v-0.3
	c0-0.1-0.1-0.1-0.1-0.1H4.8V9.9c0-0.1-0.1-0.1-0.1-0.1H4.3c-0.1,0-0.1,0-0.1,0.1L4,10.1c0,0.1,0,0.1,0.1,0.2c0,0,0,0,0.1,0h0.1v1H4
	c-0.1,0-0.1,0.1-0.1,0.1v0.3C3.9,11.8,4,11.9,4,11.9z M4,14.5h1.1c0.1,0,0.1-0.1,0.1-0.1v-0.3C5.2,14,5.2,14,5.1,14H4.4
	c0.1-0.2,0.8-0.3,0.8-0.9c0-0.5-0.4-0.6-0.7-0.6c-0.4,0-0.6,0.2-0.7,0.3c-0.1,0.1,0,0.2,0,0.3L4,13.1c0.1,0.1,0.2,0,0.3,0
	c0,0,0.1-0.1,0.2-0.1c0.1,0,0.2,0,0.2,0.1c0,0.2-0.8,0.4-0.8,1.1v0.1C3.8,14.4,3.8,14.5,4,14.5z"/>
</svg>
