<?xml version="1.0" encoding="utf-8"?>
<!-- Generator: Adobe Illustrator 24.0.2, SVG Export Plug-In . SVG Version: 6.00 Build 0)  -->
<svg version="1.1" id="Слой_1" xmlns="http://www.w3.org/2000/svg" xmlns:xlink="http://www.w3.org/1999/xlink" x="0px" y="0px"
	 viewBox="0 0 16 20" style="enable-background:new 0 0 16 20;" xml:space="preserve">
<style type="text/css">
	.st0{fill-rule:evenodd;clip-rule:evenodd;}
	.st1{fill:#FFFFFF;}
	.st2{font-family:'MyriadPro-Bold';}
	.st3{font-size:5px;}
	.st4{fill-rule:evenodd;clip-rule:evenodd;fill:#FFFFFF;}
</style>
<path class="st0" d="M16,7C16,7,16,6.9,16,7c0-0.1,0-0.2-0.1-0.3l0,0c0,0,0,0,0-0.1s-0.1-0.2-0.2-0.3l-6-6C9.6,0.2,9.5,0.1,9.4,0.1
	c0,0,0,0-0.1,0l0,0C9.2,0,9.2,0,9.1,0l0,0l0,0H2C0.9,0,0,0.9,0,2v16c0,1.1,0.9,2,2,2h12c1.1,0,2-0.9,2-2V7L16,7z M9,2l5,5H9V2z"/>
<text transform="matrix(1 0 0 1 1.0638 5.5052)" class="st1 st2 st3">&lt;&gt;</text>
<path class="st4" d="M8,10.2c-1.4,0-2.9,0.8-4,1.5c-0.6,0.4-1.1,0.7-1.4,1c-0.2,0.1-0.3,0.3-0.4,0.3c0,0-0.1,0.1-0.1,0.1
	c0,0,0,0,0,0l0,0l0,0l0,0c-0.1,0.1-0.2,0.2-0.2,0.4c0,0.2,0.1,0.3,0.2,0.4l0.4-0.4C2,13.9,2,13.9,2,13.9l0,0l0,0l0,0c0,0,0,0,0,0
	c0,0,0.1,0.1,0.1,0.1c0.1,0.1,0.2,0.2,0.4,0.3c0.3,0.3,0.8,0.6,1.4,1c1.1,0.7,2.6,1.5,4,1.5s2.9-0.8,4-1.5c0.6-0.4,1.1-0.7,1.4-1
	c0.2-0.1,0.3-0.3,0.4-0.3c0,0,0.1-0.1,0.1-0.1c0,0,0,0,0,0l0,0l0,0l0,0c0.1-0.1,0.2-0.2,0.2-0.4c0-0.2-0.1-0.3-0.2-0.4l-0.4,0.4
	c0.4-0.4,0.4-0.4,0.4-0.4l0,0l0,0l0,0c0,0,0,0,0,0c0,0-0.1-0.1-0.1-0.1c-0.1-0.1-0.2-0.2-0.4-0.3c-0.3-0.3-0.8-0.6-1.4-1
	C10.9,11,9.4,10.2,8,10.2z M13.6,13.5l0.4,0.4C14,13.9,14,13.9,13.6,13.5z M2.4,13.5L2,13.1C2,13.1,2,13.1,2.4,13.5z M3.2,13.6
	L3.2,13.6L3.2,13.6c0.3-0.3,0.8-0.6,1.3-1c0.6-0.4,1.3-0.8,2-1c-0.6,0.4-1,1.2-1,2c0,0.8,0.4,1.5,1,2c-0.7-0.2-1.4-0.6-2-1
	C4,14.2,3.5,13.8,3.2,13.6z M9.5,15.5c0.7-0.2,1.4-0.6,2-1c0.5-0.3,1-0.7,1.3-0.9l0,0l0,0c-0.3-0.3-0.8-0.6-1.3-0.9
	c-0.6-0.4-1.3-0.8-2-1c0.6,0.4,1,1.2,1,2C10.5,14.4,10.1,15.1,9.5,15.5z M9.4,13.5C9.4,14.3,8.8,15,8,15s-1.4-0.6-1.4-1.4
	s0.6-1.4,1.4-1.4S9.4,12.8,9.4,13.5z"/>
</svg>
