<?xml version="1.0" encoding="utf-8"?>
<!-- Generator: Adobe Illustrator 24.0.2, SVG Export Plug-In . SVG Version: 6.00 Build 0)  -->
<svg version="1.1" id="Слой_1" xmlns="http://www.w3.org/2000/svg" xmlns:xlink="http://www.w3.org/1999/xlink" x="0px" y="0px"
	 viewBox="0 0 16 20" style="enable-background:new 0 0 16 20;" xml:space="preserve">
<style type="text/css">
	.st0{fill-rule:evenodd;clip-rule:evenodd;}
	.st1{enable-background:new    ;}
	.st2{fill:#FFFFFF;}
	.st3{font-family:'MyriadPro-Bold';}
	.st4{font-size:5px;}
</style>
<path class="st0" d="M16,7C16,7,16,6.9,16,7c0-0.1,0-0.2-0.1-0.3l0,0c0,0,0,0,0-0.1s-0.1-0.2-0.2-0.3l-6-6C9.6,0.2,9.5,0.1,9.4,0.1
	c0,0,0,0-0.1,0l0,0C9.2,0,9.2,0,9.1,0l0,0l0,0H2C0.9,0,0,0.9,0,2v16c0,1.1,0.9,2,2,2h12c1.1,0,2-0.9,2-2V7L16,7z M9,2l5,5H9V2z"/>
<g class="st1">
	<path class="st2" d="M4.8,10.6v2.1h2v-2.1H8V16H6.8v-2.3h-2V16H3.6v-5.4H4.8z"/>
	<path class="st2" d="M11,16v-1.2H8.7V14l2-3.2h1.5v3h0.6v0.9h-0.6V16H11z M11,13.8v-1.2c0-0.3,0-0.6,0-1h0c-0.2,0.3-0.3,0.6-0.5,1
		l-0.7,1.1v0H11z"/>
</g>
<text transform="matrix(1 0 0 1 1.0638 5.5052)" class="st2 st3 st4">&lt;&gt;</text>
</svg>
