<svg id="Слой_1" data-name="Слой 1" xmlns="http://www.w3.org/2000/svg" viewBox="0 0 16 20"><defs><style>.cls-1{fill-rule:evenodd;}.cls-2{isolation:isolate;font-size:5px;font-family:ArialMT, Arial;}.cls-2,.cls-3{fill:#fff;}</style></defs><title>tag-code_html</title><path class="cls-1" d="M16,7h0a.37.37,0,0,0-.1-.3h0V6.6c0-.1-.1-.2-.2-.3l-6-6C9.6.2,9.5.1,9.4.1H9.3C9.2,0,9.2,0,9.1,0H2A2,2,0,0,0,0,2V18a2,2,0,0,0,2,2H14a2,2,0,0,0,2-2V7ZM9,2l5,5H9Z"/><text class="cls-2" transform="translate(1.06 5.51)">&lt;&gt;</text><path class="cls-3" d="M4.45,9.37,5.12,17l3,.85,3-.85.68-7.59Zm6,2.48H6.85l.08,1h3.4l-.26,2.87-1.9.52h0l-1.91-.53L6.13,14.2h.92l.07.74,1,.28,1-.28.12-1.2H6.08l-.25-2.82H10.5Z"/></svg>