<?xml version="1.0" encoding="utf-8"?>
<!-- Generator: Adobe Illustrator 24.0.2, SVG Export Plug-In . SVG Version: 6.00 Build 0)  -->
<svg version="1.1" id="Слой_1" xmlns="http://www.w3.org/2000/svg" xmlns:xlink="http://www.w3.org/1999/xlink" x="0px" y="0px"
	 viewBox="0 0 16 20" style="enable-background:new 0 0 16 20;" xml:space="preserve">
<style type="text/css">
	.st0{fill-rule:evenodd;clip-rule:evenodd;}
	.st1{enable-background:new    ;}
	.st2{fill:#FFFFFF;}
</style>
<path class="st0" d="M16,7C16,7,16,6.9,16,7c0-0.1,0-0.2-0.1-0.3l0,0c0,0,0,0,0-0.1s-0.1-0.2-0.2-0.3l-6-6C9.6,0.2,9.5,0.1,9.4,0.1
	c0,0,0,0-0.1,0l0,0C9.2,0,9.2,0,9.1,0l0,0l0,0H2C0.9,0,0,0.9,0,2v16c0,1.1,0.9,2,2,2h12c1.1,0,2-0.9,2-2V7L16,7z M9,2l5,5H9V2z"/>
<g class="st1">
	<path class="st2" d="M4.8,10.6v2.1h2v-2.1H8V16H6.8v-2.3h-2V16H3.6v-5.4H4.8z"/>
	<path class="st2" d="M9.1,14.8c0.2,0.1,0.7,0.3,1.2,0.3c0.6,0,1-0.3,1-0.7c0-0.5-0.5-0.7-1-0.7H9.7v-0.9h0.5c0.4,0,0.9-0.2,0.9-0.6
		c0-0.3-0.3-0.5-0.8-0.5c-0.4,0-0.9,0.2-1.1,0.3L9,11.1c0.3-0.2,0.9-0.4,1.6-0.4c1.1,0,1.7,0.6,1.7,1.3c0,0.6-0.3,1-1,1.2v0
		c0.6,0.1,1.1,0.6,1.1,1.3c0,0.9-0.8,1.6-2.1,1.6c-0.7,0-1.2-0.2-1.5-0.4L9.1,14.8z"/>
</g>
<g class="st1">
	<path class="st2" d="M1.3,4l2.4-1.1v0.5L1.9,4.2v0L3.7,5v0.5L1.3,4.4V4z"/>
	<path class="st2" d="M7.7,4.4L5.3,5.5V5l1.9-0.8v0L5.3,3.4V2.8l2.4,1.1V4.4z"/>
</g>
</svg>
