<?xml version="1.0" encoding="utf-8"?>
<!-- Generator: Adobe Illustrator 24.0.2, SVG Export Plug-In . SVG Version: 6.00 Build 0)  -->
<svg version="1.1" id="Слой_1" xmlns="http://www.w3.org/2000/svg" xmlns:xlink="http://www.w3.org/1999/xlink" x="0px" y="0px"
	 viewBox="0 0 16 20" style="enable-background:new 0 0 16 20;" xml:space="preserve">
<style type="text/css">
	.st0{fill-rule:evenodd;clip-rule:evenodd;}
	.st1{fill:#FFFFFF;}
	.st2{font-family:'MyriadPro-Bold';}
	.st3{font-size:5px;}
</style>
<path class="st0" d="M16,7C16,7,16,6.9,16,7c0-0.1,0-0.2-0.1-0.3l0,0c0,0,0,0,0-0.1s-0.1-0.2-0.2-0.3l-6-6C9.6,0.2,9.5,0.1,9.4,0.1
	c0,0,0,0-0.1,0l0,0C9.2,0,9.2,0,9.1,0l0,0l0,0H2C0.9,0,0,0.9,0,2v16c0,1.1,0.9,2,2,2h12c1.1,0,2-0.9,2-2V7L16,7z M9,2l5,5H9V2z"/>
<text transform="matrix(1 0 0 1 1.0638 5.5052)" class="st1 st2 st3">&lt;&gt;</text>
<path class="st1" d="M4.1,13.1c-0.5,0-0.9,0.4-0.9,0.8c0,0.5,0.4,0.8,0.9,0.8S5,14.4,5,13.9C5,13.5,4.6,13.1,4.1,13.1z M4.1,15.9
	c-0.5,0-0.9,0.4-0.9,0.8s0.4,0.8,0.9,0.8S5,17.2,5,16.7S4.6,15.9,4.1,15.9z M4.1,10.3c-0.5,0-0.9,0.4-0.9,0.8c0,0.5,0.4,0.8,0.9,0.8
	S5,11.6,5,11.2C5,10.7,4.6,10.3,4.1,10.3z M6.8,11.7h5.4c0.3,0,0.6-0.2,0.6-0.5s-0.3-0.6-0.6-0.6H6.8c-0.3,0-0.6,0.2-0.6,0.5
	C6.2,11.5,6.5,11.7,6.8,11.7z M12.2,13.4H6.8c-0.3,0-0.6,0.2-0.6,0.6c0,0.3,0.3,0.6,0.6,0.6h5.4c0.3,0,0.6-0.2,0.6-0.6
	S12.5,13.4,12.2,13.4z M12.2,16.1H6.8c-0.3,0-0.6,0.2-0.6,0.6c0,0.3,0.3,0.6,0.6,0.6h5.4c0.3,0,0.6-0.2,0.6-0.6
	C12.8,16.4,12.5,16.1,12.2,16.1z"/>
</svg>
