<svg id="Слой_1" data-name="Слой 1" xmlns="http://www.w3.org/2000/svg" viewBox="0 0 16 20"><defs><style>.cls-1{fill-rule:evenodd;}.cls-2{isolation:isolate;font-size:5px;font-family:ArialMT, Arial;}.cls-2,.cls-3{fill:#fff;}</style></defs><title>tag-code_css</title><path class="cls-1" d="M16,7h0a.37.37,0,0,0-.1-.3h0V6.6c0-.1-.1-.2-.2-.3l-6-6C9.6.2,9.5.1,9.4.1H9.3C9.2,0,9.2,0,9.1,0H2A2,2,0,0,0,0,2V18a2,2,0,0,0,2,2H14a2,2,0,0,0,2-2V7ZM9,2l5,5H9Z"/><text class="cls-2" transform="translate(1.06 5.51)">&lt;&gt;</text><path class="cls-3" d="M4.18,12.26h.56a.53.53,0,0,1,.57.56h.56a1.14,1.14,0,0,0-1.13-1.13H4.18a1.13,1.13,0,0,0-1.13,1.13v1.7a1.13,1.13,0,0,0,1.13,1.13h.56a1.14,1.14,0,0,0,1.13-1.13H5.31a.53.53,0,0,1-.57.56H4.18a.53.53,0,0,1-.57-.56v-1.7A.53.53,0,0,1,4.18,12.26Z"/><path class="cls-3" d="M11,12.26h.57a.56.56,0,0,1,.56.56h.57a1.14,1.14,0,0,0-1.13-1.13H11A1.13,1.13,0,0,0,11,14h.57a.53.53,0,0,1,.56.57.52.52,0,0,1-.56.56H11a.56.56,0,0,1-.56-.56H9.82A1.14,1.14,0,0,0,11,15.65h.57a1.13,1.13,0,1,0,0-2.26H11a.53.53,0,0,1-.56-.57A.52.52,0,0,1,11,12.26Z"/><path class="cls-3" d="M7.56,12.26h.57a.56.56,0,0,1,.56.56h.57a1.14,1.14,0,0,0-1.13-1.13H7.56a1.13,1.13,0,0,0,0,2.26h.57a.53.53,0,0,1,.56.57.52.52,0,0,1-.56.56H7.56A.57.57,0,0,1,7,14.52H6.43a1.14,1.14,0,0,0,1.13,1.13h.57a1.13,1.13,0,0,0,0-2.26H7.56A.54.54,0,0,1,7,12.82.53.53,0,0,1,7.56,12.26Z"/><path class="cls-3" d="M12.65,10H3.05a1.67,1.67,0,0,0-1.7,1.69v4a1.67,1.67,0,0,0,1.7,1.69h9.6a1.66,1.66,0,0,0,1.69-1.69v-4A1.66,1.66,0,0,0,12.65,10Zm1.13,5.65a1.14,1.14,0,0,1-1.13,1.13H3.05a1.14,1.14,0,0,1-1.13-1.13v-4a1.14,1.14,0,0,1,1.13-1.13h9.6a1.14,1.14,0,0,1,1.13,1.13Z"/></svg>