<?xml version="1.0" encoding="utf-8"?>
<!-- Generator: Adobe Illustrator 24.0.2, SVG Export Plug-In . SVG Version: 6.00 Build 0)  -->
<svg version="1.1" id="Слой_1" xmlns="http://www.w3.org/2000/svg" xmlns:xlink="http://www.w3.org/1999/xlink" x="0px" y="0px"
	 viewBox="0 0 16 20" style="enable-background:new 0 0 16 20;" xml:space="preserve">
<style type="text/css">
	.st0{fill-rule:evenodd;clip-rule:evenodd;}
	.st1{display:none;fill:#FFFFFF;enable-background:new    ;}
	.st2{font-family:'MyriadPro-Bold';}
	.st3{font-size:8px;}
	.st4{fill:#FFFFFF;}
	.st5{font-size:5px;}
</style>
<path class="st0" d="M16,7C16,7,16,6.9,16,7c0-0.1,0-0.2-0.1-0.3l0,0c0,0,0,0,0-0.1s-0.1-0.2-0.2-0.3l-6-6C9.6,0.2,9.5,0.1,9.4,0.1
	c0,0,0,0-0.1,0l0,0C9.2,0,9.2,0,9.1,0l0,0l0,0H2C0.9,0,0,0.9,0,2v16c0,1.1,0.9,2,2,2h12c1.1,0,2-0.9,2-2V7L16,7z M9,2l5,5H9V2z"/>
<text transform="matrix(1 0 0 1 1.1681 15.9998)" class="st1 st2 st3">PRE</text>
<text transform="matrix(1 0 0 1 1.0638 5.5052)" class="st4 st2 st5">&lt;&gt;</text>
<path class="st4" d="M11.8,10.7l-1.7-0.8C9.9,9.7,9.7,9.8,9.5,9.9l-3.2,3l-1.4-1.1c-0.1-0.1-0.3-0.1-0.4,0L4,12.3
	c-0.1,0.1-0.1,0.4,0,0.5l1.2,1.1L4,15c-0.1,0.1-0.1,0.4,0,0.5l0.5,0.4c0.1,0.1,0.3,0.1,0.4,0l1.4-1.1l3.2,3c0.2,0.2,0.4,0.2,0.6,0.1
	l1.7-0.8c0.2-0.1,0.3-0.3,0.3-0.5v-5.5C12.1,10.9,12,10.7,11.8,10.7L11.8,10.7z M10.1,15.7l-2.5-1.9l2.5-1.9V15.7z"/>
</svg>
