<?xml version="1.0" encoding="utf-8"?>
<!-- Generator: Adobe Illustrator 24.0.2, SVG Export Plug-In . SVG Version: 6.00 Build 0)  -->
<svg version="1.1" id="Слой_1" xmlns="http://www.w3.org/2000/svg" xmlns:xlink="http://www.w3.org/1999/xlink" x="0px" y="0px"
	 viewBox="0 0 360.6 162" style="enable-background:new 0 0 360.6 162;" xml:space="preserve">
<style type="text/css">
	.st0{fill:#ECECEC;}
	.st1{fill:#1A2E35;}
</style>
<g>
	<g>
		<path class="st0" d="M291.9,142.8l-14.8,0.3l-7.5,0.1c-2.5,0-5,0-7.5,0.1l-0.4,0l0-0.4l-0.1-12.6l0-0.5l0.5,0l14.9,0.1
			c5,0,10,0.1,14.9,0.2l0.3,0l0,0.3c0,2.1-0.1,4.3-0.1,6.4L291.9,142.8z M291.9,142.8l-0.1-6.4c0-2.1-0.1-4.2-0.1-6.3l0.3,0.3
			c-5,0.1-10,0.2-14.9,0.2l-14.9,0.1l0.5-0.5l-0.1,12.6l-0.4-0.4c2.5,0,4.9,0,7.4,0.1l7.4,0.1L291.9,142.8z"/>
	</g>
	<g>
		<path class="st0" d="M275.2,158.8l-14.8,0.3l-7.5,0.1c-2.5,0-5,0-7.5,0.1l-0.4,0l0-0.4l-0.1-12.6l0-0.5l0.5,0l14.9,0.1
			c5,0,10,0.1,14.9,0.2l0.3,0l0,0.3c0,2.1-0.1,4.3-0.1,6.4L275.2,158.8z M275.2,158.8l-0.1-6.4c0-2.1-0.1-4.2-0.1-6.3l0.3,0.3
			c-5,0.1-10,0.2-14.9,0.2l-14.9,0.1l0.5-0.5l-0.1,12.6l-0.4-0.4c2.5,0,4.9,0,7.4,0.1l7.4,0.1L275.2,158.8z"/>
	</g>
	<g>
		<path class="st0" d="M258.6,142.8l-14.8,0.3l-7.5,0.1c-2.5,0-5,0-7.5,0.1l-0.4,0l0-0.4l-0.1-12.6l0-0.5l0.5,0l14.9,0.1
			c5,0,10,0.1,14.9,0.2l0.3,0l0,0.3c0,2.1-0.1,4.3-0.1,6.4L258.6,142.8z M258.6,142.8l-0.1-6.4c0-2.1-0.1-4.2-0.1-6.3l0.3,0.3
			c-5,0.1-10,0.2-14.9,0.2l-14.9,0.1l0.5-0.5l-0.1,12.6l-0.4-0.4c2.5,0,4.9,0,7.4,0.1l7.4,0.1L258.6,142.8z"/>
	</g>
	<g>
		<path class="st0" d="M131.1,16.7l-14.8,0.3l-7.5,0.1c-2.5,0-5,0-7.5,0.1l-0.4,0l0-0.4L100.7,4l0-0.5l0.5,0l14.9,0.1
			c5,0,10,0.1,14.9,0.2l0.3,0l0,0.3c0,2.1-0.1,4.3-0.1,6.4L131.1,16.7z M131.1,16.7l-0.1-6.4c0-2.1-0.1-4.2-0.1-6.3l0.3,0.3
			c-5,0.1-10,0.2-14.9,0.2l-14.9,0.1l0.5-0.5l-0.1,12.6l-0.4-0.4c2.5,0,4.9,0,7.4,0.1l7.4,0.1L131.1,16.7z"/>
	</g>
</g>
<g>
	<path class="st0" d="M354.4,100.4l5.9-9.5l-2.9-1.8c-0.9-0.5-1.3-1.5-1.2-2.5c0-0.6,0.1-1.1,0.1-1.7c0-1,0.5-1.9,1.4-2.4l3-1.6
		l-5.3-9.8l-3,1.6c-0.9,0.5-2,0.4-2.8-0.2c-0.5-0.3-0.9-0.6-1.4-0.9c-0.9-0.5-1.4-1.4-1.4-2.4l0.1-3.4l-11.2-0.3l-0.1,3.4
		c0,1-0.6,1.9-1.6,2.3c-0.2,0.1-0.5,0.2-0.7,0.4c-0.2,0.1-0.5,0.3-0.7,0.4c-0.9,0.5-1.9,0.5-2.8,0l-2.9-1.8l-5.9,9.5l2.9,1.8
		c0.9,0.5,1.3,1.5,1.2,2.5c0,0.6-0.1,1.1-0.1,1.7c0,1-0.5,1.9-1.4,2.4l-3,1.6l5.3,9.8l3-1.6c0.9-0.5,1.9-0.4,2.8,0.2
		c0.5,0.3,0.9,0.6,1.4,0.9c0.9,0.5,1.4,1.4,1.4,2.4l-0.1,3.4l11.2,0.3l0.1-3.4c0-1,0.6-1.9,1.6-2.3c0.2-0.1,0.5-0.2,0.7-0.4
		c0.2-0.1,0.5-0.3,0.7-0.4c0.9-0.5,1.9-0.6,2.8,0L354.4,100.4z M345,93.3c-4.5,2.4-10,0.7-12.4-3.7c-2.4-4.5-0.7-10,3.7-12.4
		c4.5-2.4,10-0.7,12.4,3.7C351.1,85.4,349.4,90.9,345,93.3z"/>
	<path class="st0" d="M147,26.1l-3.9-6.8l-2.1,1.2c-0.6,0.4-1.4,0.3-2-0.1c-0.3-0.2-0.7-0.4-1-0.6c-0.6-0.3-1-1-1-1.7v-2.4h-7.8v2.4
		c0,0.7-0.4,1.3-1,1.7c-0.3,0.2-0.7,0.4-1,0.6c-0.6,0.4-1.3,0.4-2,0.1l-2.1-1.2l-3.9,6.8l2.1,1.2c0.6,0.4,0.9,1,0.9,1.7
		c0,0.2,0,0.4,0,0.6c0,0.2,0,0.4,0,0.6c0,0.7-0.3,1.4-0.9,1.7l-2.1,1.2l3.9,6.8l2.1-1.2c0.6-0.4,1.4-0.3,2,0.1
		c0.3,0.2,0.7,0.4,1,0.6c0.6,0.3,1,1,1,1.7v2.4h7.8V41c0-0.7,0.4-1.3,1-1.7c0.3-0.2,0.7-0.4,1-0.6c0.6-0.4,1.3-0.4,2-0.1l2.1,1.2
		l3.9-6.8l-2.1-1.2c-0.6-0.4-0.9-1-0.9-1.7c0-0.2,0-0.4,0-0.6c0-0.2,0-0.4,0-0.6c0-0.7,0.3-1.4,0.9-1.7L147,26.1z M139.6,29.6
		c0,3.5-2.9,6.4-6.4,6.4c-3.5,0-6.4-2.9-6.4-6.4s2.9-6.4,6.4-6.4C136.7,23.2,139.6,26.1,139.6,29.6z"/>
</g>
<g>
	<g>
		<path class="st1" d="M88.8,147.1l-6.2-24.4l-49,12.5L27,109.6l39.2-89.3l19.4-4.9l18.9,74.4l15.7-4l6.5,25.7l-15.7,4l6.2,24.4
			L88.8,147.1z M55.2,102.3l24.3-6.2l-8-31.6L55.2,102.3z"/>
		<path class="st1" d="M229.2,65.5c0,8.1-1.2,15.5-3.7,22.4c-2.5,6.8-5.8,12.7-10.1,17.7c-4.3,5-9.4,8.8-15.2,11.6
			c-5.8,2.8-12.2,4.1-19,4.1c-6.9,0-13.2-1.4-19.1-4.1c-5.9-2.8-11-6.6-15.3-11.6c-4.3-5-7.6-10.9-10-17.7
			c-2.4-6.8-3.6-14.3-3.6-22.4c0-8.1,1.2-15.5,3.6-22.4c2.4-6.8,5.7-12.7,10-17.7c4.3-5,9.4-8.9,15.3-11.7
			c5.9-2.8,12.3-4.2,19.1-4.2c6.9,0,13.2,1.4,19,4.2c5.8,2.8,10.9,6.7,15.2,11.7c4.3,5,7.7,10.9,10.1,17.7
			C228,50,229.2,57.4,229.2,65.5z M199.6,65.5c0-8.6-1.7-15.5-5.2-20.9c-3.4-5.3-7.8-8-13.2-8c-5.6,0-10.2,2.7-13.5,8
			c-3.4,5.3-5.1,12.3-5.1,20.9c0,8.6,1.7,15.5,5.1,20.8c3.4,5.3,7.9,7.9,13.5,7.9c5.4,0,9.8-2.6,13.2-7.9
			C197.9,81,199.6,74.1,199.6,65.5z"/>
		<path class="st1" d="M282,142.4l4-24.9l-49.9-8.1l4.2-26l71.5-66.3l19.8,3.2L319.3,96l16,2.6l-4.2,26.2l-16-2.6l-4,24.9L282,142.4
			z M269,87.9l24.7,4l5.2-32.1L269,87.9z"/>
	</g>
</g>
<g>
	<g>
		<path class="st1" d="M64.1,59.6c-0.1-4.1-1-8.3-2.9-11.9c-1-1.8-2.2-3.4-3.9-4.5c-1.7-1.1-3.7-1.5-5.7-1.2c-1.9,0.3-3.7,1.5-4.9,3
			c-0.6,0.8-1.1,1.7-1.4,2.6c-0.3,0.9-0.5,1.9-0.4,2.8c0.1,0.4,0.2,0.9,0.5,1.1c0.1,0.1,0.3,0.2,0.5,0.3c0.1,0,0.2,0,0.3,0.1
			c0.1,0,0.2,0,0.2,0c0.7-0.1,1.3-1,1.8-1.9c0.9-1.7,1.5-3.7,1.9-5.7c0.7-4,0.7-8.2-0.6-12c-0.6-1.9-1.6-3.7-2.9-5.2
			c-1.3-1.5-3-2.7-4.8-3.5c-0.9-0.5-1.9-0.7-2.8-1c-0.5-0.2-1-0.2-1.5-0.3c-0.5-0.1-1-0.2-1.5-0.2c-2-0.2-4.1,0.1-6,0.6
			c-4,1-7.6,3.2-10.7,5.9c1.5-1.5,3.1-2.7,4.9-3.8c1.8-1.1,3.7-2,5.7-2.6c2-0.5,4.1-0.9,6.2-0.8c0.5,0,1,0.1,1.6,0.2
			c0.5,0.1,1.1,0.1,1.6,0.3c1,0.3,2,0.5,3,1c2,0.7,3.8,2,5.2,3.6c1.4,1.6,2.4,3.5,3.1,5.5c1.3,4,1.4,8.4,0.7,12.5
			c-0.4,2.1-1,4.1-2,6c-0.3,0.5-0.6,0.9-0.9,1.4c-0.4,0.4-0.8,0.8-1.6,1c-0.4,0-0.7,0-1-0.1c-0.3-0.1-0.6-0.3-0.8-0.5
			c-0.4-0.5-0.6-1.1-0.7-1.6c-0.2-1.1,0.1-2.2,0.4-3.3c0.4-1,0.9-2,1.6-2.8c1.3-1.7,3.3-3,5.4-3.3c2.1-0.3,4.4,0.2,6.1,1.4
			c1.8,1.2,3,3,4,4.8c0.9,1.9,1.5,3.9,1.9,5.9C64,55.5,64.2,57.5,64.1,59.6z"/>
	</g>
	<g>
		<path class="st1" d="M284.9,111.8c-4-0.9-8.3-1-12.2,0.1c-2,0.5-3.9,1.4-5.3,2.7c-1.4,1.4-2.4,3.3-2.5,5.2c-0.2,2,0.6,3.9,1.8,5.5
			c0.6,0.8,1.4,1.4,2.2,2c0.8,0.5,1.7,0.9,2.7,1c0.5,0,0.9,0,1.2-0.2c0.2-0.1,0.3-0.2,0.4-0.4c0.1-0.1,0.1-0.2,0.1-0.3
			c0-0.1,0-0.2,0.1-0.2c0-0.7-0.7-1.6-1.4-2.2c-1.5-1.3-3.3-2.3-5.1-3.1c-3.7-1.6-7.8-2.6-11.8-2.3c-2,0.2-4,0.6-5.8,1.6
			c-1.8,0.9-3.3,2.2-4.5,3.9c-0.7,0.8-1.1,1.7-1.7,2.5c-0.3,0.4-0.4,0.9-0.6,1.4c-0.2,0.5-0.4,0.9-0.5,1.4c-0.6,1.9-0.8,4-0.8,6
			c0.1,4.1,1.3,8.1,3.2,11.8c-1.1-1.8-1.9-3.7-2.5-5.7c-0.6-2-1.1-4-1.2-6.1c-0.1-2.1,0.1-4.2,0.7-6.2c0.1-0.5,0.4-1,0.5-1.5
			c0.2-0.5,0.3-1,0.6-1.4c0.5-0.9,1-1.9,1.7-2.7c1.2-1.7,2.8-3.2,4.7-4.2c1.9-1,4-1.5,6.1-1.7c4.2-0.4,8.5,0.6,12.3,2.2
			c1.9,0.9,3.8,1.9,5.4,3.4c0.4,0.4,0.8,0.8,1.1,1.2c0.3,0.5,0.6,1,0.6,1.7c-0.1,0.4-0.2,0.7-0.4,0.9c-0.2,0.3-0.4,0.5-0.7,0.6
			c-0.6,0.3-1.2,0.4-1.8,0.3c-1.1-0.1-2.2-0.6-3.1-1.2c-0.9-0.6-1.7-1.3-2.4-2.2c-1.4-1.7-2.1-3.9-1.9-6.1c0.2-2.2,1.3-4.2,2.8-5.6
			c1.6-1.4,3.6-2.3,5.6-2.7c2-0.5,4.1-0.6,6.2-0.5C280.9,110.9,283,111.2,284.9,111.8z"/>
	</g>
	<g>
		<path class="st1" d="M223,47.1c-0.7-2.4-0.8-4.9-0.4-7.4c0.4-2.4,1.2-4.9,2.6-7c1.3-2.1,3.2-3.9,5.4-5.1c2.2-1.2,4.8-1.7,7.3-1.6
			c2.5,0.1,5,0.7,7.3,1.8c2.3,1.1,4.4,2.5,6.1,4.4c0.8,1,1.6,2.1,1.6,3.6c0,0.7-0.3,1.5-0.8,2c-0.5,0.5-1.1,0.9-1.8,1.1
			c-0.7,0.2-1.5,0.2-2.1-0.1c-0.7-0.2-1.2-0.7-1.7-1.1c-1-0.9-1.6-2-2.2-3.2c-1.1-2.3-1.7-4.8-2-7.2c-0.3-2.5-0.2-5,0.2-7.5
			c0.8-4.9,3.4-9.7,7.4-12.7c2-1.5,4.3-2.7,6.7-3.3c2.4-0.7,5-0.8,7.4-0.5c2.5,0.3,4.9,1,7.1,2c2.3,1,4.4,2.2,6.4,3.7
			c-4.1-2.7-8.7-4.7-13.6-5.2c-2.4-0.2-4.9-0.1-7.2,0.6c-2.3,0.6-4.5,1.8-6.4,3.3c-1.9,1.5-3.5,3.4-4.6,5.5
			c-1.2,2.1-1.9,4.4-2.4,6.8c-0.8,4.7-0.3,9.8,1.7,14.2c0.5,1.1,1.2,2.1,2,2.9c0.8,0.8,1.9,1.3,2.9,1c0.5-0.1,1-0.5,1.4-0.8
			c0.4-0.4,0.5-0.8,0.5-1.3c0-1.1-0.6-2.1-1.4-3c-1.5-1.8-3.6-3.2-5.7-4.2c-2.2-1-4.6-1.6-7-1.7c-2.4-0.1-4.8,0.4-7,1.4
			c-2.2,1.1-4,2.8-5.3,4.8C223,37.1,222,42.3,223,47.1z"/>
	</g>
	<g>
		<g>
			<g>
				<g>
					<path class="st1" d="M283.1,6c-2-0.6-4.1,0.5-4.7,2.4c-0.6,2,0.5,4.1,2.4,4.7c2,0.6,4-0.5,4.7-2.4C286.2,8.7,285.1,6.6,283.1,6
						z M285.1,10.5c-0.5,1.7-2.4,2.7-4.1,2.1c-1.7-0.5-2.7-2.4-2.1-4.1c0.5-1.7,2.4-2.7,4.1-2.1C284.7,7,285.7,8.8,285.1,10.5z
						 M283.1,6c-2-0.6-4.1,0.5-4.7,2.4c-0.6,2,0.5,4.1,2.4,4.7c2,0.6,4-0.5,4.7-2.4C286.2,8.7,285.1,6.6,283.1,6z M285.1,10.5
						c-0.5,1.7-2.4,2.7-4.1,2.1c-1.7-0.5-2.7-2.4-2.1-4.1c0.5-1.7,2.4-2.7,4.1-2.1C284.7,7,285.7,8.8,285.1,10.5z M283.1,6
						c-2-0.6-4.1,0.5-4.7,2.4c-0.6,2,0.5,4.1,2.4,4.7c2,0.6,4-0.5,4.7-2.4C286.2,8.7,285.1,6.6,283.1,6z M285.1,10.5
						c-0.5,1.7-2.4,2.7-4.1,2.1c-1.7-0.5-2.7-2.4-2.1-4.1c0.5-1.7,2.4-2.7,4.1-2.1C284.7,7,285.7,8.8,285.1,10.5z M284.4,2.1
						c-4.1-1.3-8.5,1-9.8,5.1c-1.3,4.1,1,8.5,5.1,9.8c4.1,1.3,8.5-1,9.8-5.1C290.8,7.8,288.5,3.4,284.4,2.1z M286.1,10.8
						c-0.7,2.3-3.1,3.5-5.4,2.8c-2.3-0.7-3.5-3.1-2.8-5.4c0.7-2.3,3.1-3.5,5.4-2.8C285.6,6.1,286.8,8.6,286.1,10.8z M285.6,10.7
						c0.6-2-0.5-4-2.4-4.7c-2-0.6-4.1,0.5-4.7,2.4c-0.6,2,0.5,4.1,2.4,4.7C282.8,13.7,284.9,12.6,285.6,10.7z M285.1,10.5
						c-0.5,1.7-2.4,2.7-4.1,2.1c-1.7-0.5-2.7-2.4-2.1-4.1c0.5-1.7,2.4-2.7,4.1-2.1C284.7,7,285.7,8.8,285.1,10.5z M283.1,6
						c-2-0.6-4.1,0.5-4.7,2.4c-0.6,2,0.5,4.1,2.4,4.7c2,0.6,4-0.5,4.7-2.4C286.2,8.7,285.1,6.6,283.1,6z M285.1,10.5
						c-0.5,1.7-2.4,2.7-4.1,2.1c-1.7-0.5-2.7-2.4-2.1-4.1c0.5-1.7,2.4-2.7,4.1-2.1C284.7,7,285.7,8.8,285.1,10.5z M283.1,6
						c-2-0.6-4.1,0.5-4.7,2.4c-0.6,2,0.5,4.1,2.4,4.7c2,0.6,4-0.5,4.7-2.4C286.2,8.7,285.1,6.6,283.1,6z M285.1,10.5
						c-0.5,1.7-2.4,2.7-4.1,2.1c-1.7-0.5-2.7-2.4-2.1-4.1c0.5-1.7,2.4-2.7,4.1-2.1C284.7,7,285.7,8.8,285.1,10.5z"/>
					<g>
						<polygon class="st1" points="281.2,17.2 278.3,16.3 277.8,18.3 280.4,19.1 						"/>
						<polygon class="st1" points="276,14.5 274.6,11.8 272.8,12.9 274,15.3 						"/>
						<polygon class="st1" points="274.3,8.9 275.2,6 273.1,5.5 272.3,8.1 						"/>
						<polygon class="st1" points="277,3.7 279.6,2.3 278.5,0.5 276.1,1.8 						"/>
						<polygon class="st1" points="282.5,2 285.4,2.9 285.9,0.8 283.3,0 						"/>
						<polygon class="st1" points="287.7,4.7 289.1,7.4 290.9,6.2 289.7,3.8 						"/>
						<polygon class="st1" points="289.4,10.2 288.5,13.1 290.6,13.6 291.4,11 						"/>
						<polygon class="st1" points="286.7,15.4 284.1,16.8 285.2,18.6 287.6,17.4 						"/>
					</g>
				</g>
			</g>
		</g>
	</g>
	<g>
		<g>
			<g>
				<g>
					<path class="st1" d="M244.9,148.9c-2-0.6-4,0.5-4.7,2.4c-0.6,2,0.5,4.1,2.4,4.7c2,0.6,4-0.5,4.7-2.4
						C248,151.6,246.9,149.5,244.9,148.9z M246.9,153.4c-0.5,1.7-2.4,2.7-4.1,2.1c-1.7-0.5-2.7-2.4-2.1-4.1c0.5-1.7,2.4-2.7,4.1-2.1
						C246.5,149.8,247.4,151.7,246.9,153.4z M244.9,148.9c-2-0.6-4,0.5-4.7,2.4c-0.6,2,0.5,4.1,2.4,4.7c2,0.6,4-0.5,4.7-2.4
						C248,151.6,246.9,149.5,244.9,148.9z M246.9,153.4c-0.5,1.7-2.4,2.7-4.1,2.1c-1.7-0.5-2.7-2.4-2.1-4.1c0.5-1.7,2.4-2.7,4.1-2.1
						C246.5,149.8,247.4,151.7,246.9,153.4z M244.9,148.9c-2-0.6-4,0.5-4.7,2.4c-0.6,2,0.5,4.1,2.4,4.7c2,0.6,4-0.5,4.7-2.4
						C248,151.6,246.9,149.5,244.9,148.9z M246.9,153.4c-0.5,1.7-2.4,2.7-4.1,2.1c-1.7-0.5-2.7-2.4-2.1-4.1c0.5-1.7,2.4-2.7,4.1-2.1
						C246.5,149.8,247.4,151.7,246.9,153.4z M246.1,144.9c-4.1-1.3-8.5,1-9.8,5.1c-1.3,4.1,1,8.5,5.1,9.8c4.1,1.3,8.5-1,9.8-5.1
						C252.6,150.6,250.3,146.2,246.1,144.9z M247.9,153.7c-0.7,2.3-3.1,3.5-5.4,2.8c-2.3-0.7-3.5-3.1-2.8-5.4
						c0.7-2.3,3.1-3.5,5.4-2.8C247.3,149,248.6,151.4,247.9,153.7z M247.3,153.5c0.6-2-0.5-4-2.4-4.7c-2-0.6-4,0.5-4.7,2.4
						c-0.6,2,0.5,4.1,2.4,4.7C244.6,156.6,246.7,155.5,247.3,153.5z M246.9,153.4c-0.5,1.7-2.4,2.7-4.1,2.1
						c-1.7-0.5-2.7-2.4-2.1-4.1c0.5-1.7,2.4-2.7,4.1-2.1C246.5,149.8,247.4,151.7,246.9,153.4z M244.9,148.9c-2-0.6-4,0.5-4.7,2.4
						c-0.6,2,0.5,4.1,2.4,4.7c2,0.6,4-0.5,4.7-2.4C248,151.6,246.9,149.5,244.9,148.9z M246.9,153.4c-0.5,1.7-2.4,2.7-4.1,2.1
						c-1.7-0.5-2.7-2.4-2.1-4.1c0.5-1.7,2.4-2.7,4.1-2.1C246.5,149.8,247.4,151.7,246.9,153.4z M244.9,148.9c-2-0.6-4,0.5-4.7,2.4
						c-0.6,2,0.5,4.1,2.4,4.7c2,0.6,4-0.5,4.7-2.4C248,151.6,246.9,149.5,244.9,148.9z M246.9,153.4c-0.5,1.7-2.4,2.7-4.1,2.1
						c-1.7-0.5-2.7-2.4-2.1-4.1c0.5-1.7,2.4-2.7,4.1-2.1C246.5,149.8,247.4,151.7,246.9,153.4z"/>
					<g>
						<polygon class="st1" points="243,160 240.1,159.1 239.6,161.2 242.2,162 						"/>
						<polygon class="st1" points="237.8,157.3 236.4,154.7 234.6,155.8 235.8,158.2 						"/>
						<polygon class="st1" points="236,151.8 237,148.9 234.9,148.4 234.1,151 						"/>
						<polygon class="st1" points="238.7,146.6 241.4,145.2 240.3,143.4 237.9,144.6 						"/>
						<polygon class="st1" points="244.3,144.9 247.2,145.8 247.7,143.7 245.1,142.9 						"/>
						<polygon class="st1" points="249.5,147.5 250.9,150.2 252.7,149.1 251.4,146.7 						"/>
						<polygon class="st1" points="251.2,153.1 250.3,156 252.4,156.5 253.2,153.9 						"/>
						<polygon class="st1" points="248.5,158.3 245.9,159.7 247,161.5 249.4,160.2 						"/>
					</g>
				</g>
			</g>
		</g>
	</g>
	<g>
		<g>
			<path class="st1" d="M26.2,36.4c1.5-6.3-2.3-12.7-8.7-14.3c-6.3-1.5-12.7,2.3-14.3,8.7C1.7,37.1,5.6,43.5,11.9,45
				C18.3,46.6,24.7,42.7,26.2,36.4z M20.1,34.9c-0.7,3-3.7,4.8-6.7,4c-3-0.7-4.8-3.7-4-6.7c0.7-3,3.7-4.8,6.7-4
				C19,29,20.8,31.9,20.1,34.9z"/>
			<polygon class="st1" points="14.3,45.1 9.9,44 9.3,47.2 13.3,48.2 			"/>
			<polygon class="st1" points="6.2,41.6 3.9,37.7 1.3,39.6 3.4,43 			"/>
			<polygon class="st1" points="3.1,33.4 4.1,29 1,28.5 0,32.4 			"/>
			<polygon class="st1" points="6.6,25.4 10.5,23 8.6,20.4 5.1,22.5 			"/>
			<polygon class="st1" points="14.8,22.2 19.2,23.3 19.7,20.1 15.8,19.1 			"/>
			<polygon class="st1" points="22.8,25.7 25.1,29.6 27.8,27.7 25.7,24.3 			"/>
			<polygon class="st1" points="26,33.9 24.9,38.3 28.1,38.8 29,34.9 			"/>
			<polygon class="st1" points="22.4,41.9 18.6,44.3 20.4,46.9 23.9,44.8 			"/>
		</g>
		<path class="st1" d="M11.1,35.8l3.5,1.9l3.4-2.1l-0.1-4l-3.5-1.9L11,31.7L11.1,35.8z M14.8,32.4c0.7,0.2,1.1,0.9,0.9,1.5
			c-0.2,0.7-0.9,1.1-1.5,0.9c-0.7-0.2-1.1-0.9-0.9-1.5C13.4,32.7,14.1,32.2,14.8,32.4z"/>
	</g>
</g>
</svg>
