<?xml version="1.0" encoding="utf-8"?>
<!-- Generator: Adobe Illustrator 16.0.0, SVG Export Plug-In . SVG Version: 6.00 Build 0)  -->
<!DOCTYPE svg PUBLIC "-//W3C//DTD SVG 1.1//EN" "http://www.w3.org/Graphics/SVG/1.1/DTD/svg11.dtd">
<svg version="1.1" id="Layer_1" xmlns="http://www.w3.org/2000/svg" xmlns:xlink="http://www.w3.org/1999/xlink" x="0px" y="0px"
	 width="1484.041px" height="1126.444px" viewBox="0 0 1484.041 1126.444" enable-background="new 0 0 1484.041 1126.444"
	 xml:space="preserve">
<g>
	<path fill="#fff" d="M1355.167,970.385c-21.381,0-38.776-17.402-38.776-38.787c0-21.376,17.396-38.777,38.776-38.777
		c21.383,0,38.772,17.401,38.772,38.777C1393.939,952.983,1376.55,970.385,1355.167,970.385L1355.167,970.385L1355.167,970.385z
		 M828.5,1013.832c42.204-60.792,92.223-147.926,122.993-252.595c65.366,13.417,126.385,35.152,192.567,68.18L828.5,1013.832
		L828.5,1013.832z M509.984,410.93c-10.203,42.548-17.189,87.861-18.77,135.539c-59.411,0.014-117.304,0.014-182.332,0.014V337.274
		C373.911,372.332,442.366,395.966,509.984,410.93L509.984,410.93L509.984,410.93z M126.134,241.434
		c-21.386,0-38.783-17.393-38.783-38.776c0-21.381,17.396-38.777,38.783-38.777c21.382,0,38.775,17.396,38.775,38.777
		C164.909,224.042,147.516,241.434,126.134,241.434L126.134,241.434L126.134,241.434z M642.555,128.239
		c-42.396,59.216-90.928,142.259-121.242,242.985c-61.111-13.294-118.75-34.073-180.81-64.768L642.555,128.239L642.555,128.239z
		 M757.072,701.705c0.035-15.894,0.08-32.054,0.131-48.375c33.506-6.714,60.104-32.567,68.069-65.601
		c40.947,0.033,80.07,0.058,118.445,0.058c-1.561,44.188-7.951,86.703-17.659,126.985
		C874.153,706.333,819.047,702.345,757.072,701.705L757.072,701.705L757.072,701.705z M756.998,743.055
		c58.284,0.595,109.821,4.141,158.19,11.664c-40.915,134.825-115.356,240.25-157.331,292.364
		C757.143,950.653,756.856,851.446,756.998,743.055L756.998,743.055L756.998,743.055z M521.414,767.003
		c30.364,101.122,78.951,183.832,121.395,242.573L332.781,830.405C370.73,812.572,435.802,786.147,521.414,767.003L521.414,767.003
		L521.414,767.003z M654.539,587.743c7.84,32.503,33.72,58.014,66.475,65.22c-0.052,16.492-0.099,32.8-0.136,48.845
		c-63.855,1.075-122.367,7.805-174.527,17.553c-10.044-41.27-16.609-85.26-18.083-131.542
		C569.408,587.801,611.063,587.776,654.539,587.743L654.539,587.743L654.539,587.743z M720.849,432.53
		c0.044,16.32,0.09,32.59,0.141,48.846c-32.668,7.196-58.496,32.605-66.396,65.003c-43.477,0.036-85.124,0.057-126.26,0.076
		c1.575-45.203,7.98-88.174,17.712-128.525C599.707,427.275,656.571,431.734,720.849,432.53L720.849,432.53L720.849,432.53z
		 M720.443,115.105c0.045,90.703,0.108,183.617,0.305,276.061c-60.508-0.746-113.772-4.695-163.825-13.083
		c42.067-137.66,119.765-240.28,163.501-290.291L720.443,115.105L720.443,115.105z M950.626,369.998
		c-30.685-102.479-79.827-187.658-121.498-247.396l317.654,184.723C1107.555,325.135,1039.819,351.547,950.626,369.998
		L950.626,369.998L950.626,369.998z M756.634,115.079l-0.02-27.755c41.438,50.653,116.323,154.869,157.818,289.476
		c-47.613,8.076-100.398,13.54-157.495,14.337C756.743,298.699,756.688,205.788,756.634,115.079L756.634,115.079L756.634,115.079z
		 M739.904,613.704c-25.658,0-46.533-20.879-46.533-46.542c0-25.658,20.875-46.534,46.533-46.534
		c25.65,0,46.534,20.876,46.534,46.534C786.436,592.825,765.555,613.704,739.904,613.704L739.904,613.704L739.904,613.704z
		 M721.689,1049.91c-43.198-49.289-121.579-152.185-164.225-290.3c49.102-9.091,103.927-15.365,163.342-16.439
		C720.664,852.564,720.955,952.622,721.689,1049.91L721.689,1049.91L721.689,1049.91z M825.201,546.359
		c-8.034-32.929-34.581-58.669-68.024-65.359c-0.048-16.136-0.094-32.299-0.136-48.5c61.425-0.811,117.887-6.679,168.528-15.375
		c10.008,40.911,16.6,84.195,18.166,129.306C905.338,546.422,866.174,546.397,825.201,546.359L825.201,546.359L825.201,546.359z
		 M1166.106,546.303c-59.115,0.081-125.271,0.129-188.068,0.129c-1.516-47.653-9.195-93.197-19.441-136.117
		c96.413-20,172.04-48.989,207.51-67.866V546.303L1166.106,546.303z M308.883,587.846c65.028,0,123.174,0,182.559-0.017
		c1.439,49.008,7.862,95.413,18.209,138.837c-92.266,20.652-159.388,49.493-200.768,68.465V587.846L308.883,587.846z
		 M960.105,721.433c9.911-42.237,15.459-86.953,16.969-133.632c62.788-0.015,129.917-0.047,189.029-0.143V796.34
		C1101.081,760.144,1030.558,736.189,960.105,721.433L960.105,721.433L960.105,721.433z M1355.167,841.125
		c-24.299,0-47.515,9.68-63.78,25.323c-24.566-15.415-48.422-29.482-72.068-42.367V291.049L738.621,10.84L286.226,278.1
		c-24.145-13.512-48.897-28.455-75.287-45.007c3.421-9.53,5.527-19.745,5.527-30.434c0-49.889-40.524-90.473-90.411-90.473
		c-49.891,0-90.441,40.584-90.441,90.473c0,49.892,40.608,90.484,90.503,90.484c24.296,0,44.988-9.677,61.265-25.322
		c24.111,15.124,50.555,28.946,68.293,41.639v537.669l482.937,278.314l458.413-267.496c23.151,13.032,47.489,27.402,72.704,43.217
		c-3.42,9.528-5.22,19.747-5.22,30.432c0,49.896,40.679,90.484,90.573,90.484c49.896,0,90.521-40.59,90.521-90.484
		C1445.604,881.709,1405.058,841.125,1355.167,841.125L1355.167,841.125L1355.167,841.125z"/>
</g>
</svg>
