<?xml version="1.0" encoding="utf-8"?>
<!-- Generator: Adobe Illustrator 24.0.2, SVG Export Plug-In . SVG Version: 6.00 Build 0)  -->
<svg version="1.1" id="Слой_1" xmlns="http://www.w3.org/2000/svg" xmlns:xlink="http://www.w3.org/1999/xlink" x="0px" y="0px"
	 viewBox="0 0 54.5 54" style="enable-background:new 0 0 54.5 54;" xml:space="preserve">
<style type="text/css">
	.st0{fill:#4C4C4C;}
</style>
<path class="st0" d="M3.6,0C1.6,0,0,1.6,0,3.6v7.1c0,2,1.6,3.6,3.6,3.6h17.8c2,0,3.6-1.6,3.6-3.6V3.6c0-2-1.6-3.6-3.6-3.6H3.6z"/>
<path class="st0" d="M32.6,0c-2,0-3.6,1.6-3.6,3.6v7.1c0,2,1.6,3.6,3.6,3.6h17.8c2,0,3.6-1.6,3.6-3.6V3.6c0-2-1.6-3.6-3.6-3.6H32.6z
	"/>
<path class="st0" d="M3.6,39.7c-2,0-3.6,1.6-3.6,3.6v7.1c0,2,1.6,3.6,3.6,3.6h17.8c2,0,3.6-1.6,3.6-3.6v-7.1c0-2-1.6-3.6-3.6-3.6
	H3.6z"/>
<path d="M3.6,19.9c-2,0-3.6,1.6-3.6,3.6v7.1c0,2,1.6,3.6,3.6,3.6h47.3c2,0,3.6-1.6,3.6-3.6v-7.1c0-2-1.6-3.6-3.6-3.6H3.6z"/>
<path class="st0" d="M32.5,39.7c-2,0-3.6,1.6-3.6,3.6v7.1c0,2,1.6,3.6,3.6,3.6h17.8c2,0,3.6-1.6,3.6-3.6v-7.1c0-2-1.6-3.6-3.6-3.6
	H32.5z"/>
</svg>
