<?xml version="1.0" encoding="UTF-8" standalone="no"?>
<!-- Created with Inkscape (http://www.inkscape.org/) -->

<svg
   xmlns:dc="http://purl.org/dc/elements/1.1/"
   xmlns:cc="http://creativecommons.org/ns#"
   xmlns:rdf="http://www.w3.org/1999/02/22-rdf-syntax-ns#"
   xmlns:svg="http://www.w3.org/2000/svg"
   xmlns="http://www.w3.org/2000/svg"
   xmlns:sodipodi="http://sodipodi.sourceforge.net/DTD/sodipodi-0.dtd"
   xmlns:inkscape="http://www.inkscape.org/namespaces/inkscape"
   width="48pt"
   height="48pt"
   viewBox="0 0 16.933334 16.933333"
   version="1.1"
   id="svg979"
   inkscape:version="0.92.4 (5da689c313, 2019-01-14)"
   sodipodi:docname="26 - Time Management.svg"
   inkscape:export-filename="E:\TR Design Studio Creative\Project Design\TR Creative Design\Icon Design\Project Hiring\Icon Icons\003 - Business And Finance\Send\2 - Solid\26 - Time Management.png"
   inkscape:export-xdpi="768"
   inkscape:export-ydpi="768">
  <defs
     id="defs973">
    <pattern
       y="0"
       x="0"
       height="6"
       width="6"
       patternUnits="userSpaceOnUse"
       id="EMFhbasepattern" />
    <pattern
       y="0"
       x="0"
       height="6"
       width="6"
       patternUnits="userSpaceOnUse"
       id="EMFhbasepattern-1" />
    <pattern
       y="0"
       x="0"
       height="6"
       width="6"
       patternUnits="userSpaceOnUse"
       id="EMFhbasepattern-9" />
  </defs>
  <sodipodi:namedview
     id="base"
     pagecolor="#ffffff"
     bordercolor="#666666"
     borderopacity="1.0"
     inkscape:pageopacity="0.0"
     inkscape:pageshadow="2"
     inkscape:zoom="8.546875"
     inkscape:cx="32"
     inkscape:cy="32"
     inkscape:document-units="pt"
     inkscape:current-layer="layer1"
     showgrid="false"
     units="pt"
     inkscape:window-width="1366"
     inkscape:window-height="716"
     inkscape:window-x="-8"
     inkscape:window-y="-8"
     inkscape:window-maximized="1"
     inkscape:snap-bbox="true"
     inkscape:bbox-nodes="true"
     inkscape:snap-nodes="false"
     showguides="false">
    <inkscape:grid
       type="xygrid"
       id="grid1526" />
    <sodipodi:guide
       position="0.97013909,15.963209"
       orientation="56.666615,0"
       id="guide1528"
       inkscape:locked="false" />
    <sodipodi:guide
       position="0.97013909,0.97016731"
       orientation="0,56.666667"
       id="guide1530"
       inkscape:locked="false" />
    <sodipodi:guide
       position="15.963195,0.97016731"
       orientation="-56.666615,0"
       id="guide1532"
       inkscape:locked="false" />
    <sodipodi:guide
       position="15.963195,15.963209"
       orientation="0,-56.666667"
       id="guide1534"
       inkscape:locked="false" />
  </sodipodi:namedview>
  <metadata
     id="metadata976">
    <rdf:RDF>
      <cc:Work
         rdf:about="">
        <dc:format>image/svg+xml</dc:format>
        <dc:type
           rdf:resource="http://purl.org/dc/dcmitype/StillImage" />
        <dc:title></dc:title>
      </cc:Work>
    </rdf:RDF>
  </metadata>
  <g
     inkscape:label="Layer 1"
     inkscape:groupmode="layer"
     id="layer1"
     transform="translate(0,-280.06668)">
    <path
       style="color:#000000;font-style:normal;font-variant:normal;font-weight:normal;font-stretch:normal;font-size:medium;line-height:normal;font-family:sans-serif;font-variant-ligatures:normal;font-variant-position:normal;font-variant-caps:normal;font-variant-numeric:normal;font-variant-alternates:normal;font-feature-settings:normal;text-indent:0;text-align:start;text-decoration:none;text-decoration-line:none;text-decoration-style:solid;text-decoration-color:#000000;letter-spacing:normal;word-spacing:normal;text-transform:none;writing-mode:lr-tb;direction:ltr;text-orientation:mixed;dominant-baseline:auto;baseline-shift:baseline;text-anchor:start;white-space:normal;shape-padding:0;clip-rule:nonzero;display:inline;overflow:visible;visibility:visible;opacity:1;isolation:auto;mix-blend-mode:normal;color-interpolation:sRGB;color-interpolation-filters:linearRGB;solid-color:#000000;solid-opacity:1;vector-effect:none;fill:#000000;fill-opacity:1;fill-rule:nonzero;stroke:none;stroke-width:0.5291667;stroke-linecap:round;stroke-linejoin:round;stroke-miterlimit:1.5;stroke-dasharray:none;stroke-dashoffset:0;stroke-opacity:1;paint-order:markers fill stroke;color-rendering:auto;image-rendering:auto;shape-rendering:auto;text-rendering:auto;enable-background:accumulate"
       d="m 6.6833372,281.03683 v 1.06942 h 0.7138892 v -1.06942 z m 1.427777,0 v 1.06942 h 0.7138893 v -1.06942 z m 1.428474,0 v 1.06942 h 0.7138888 v -1.06942 z m -2.1423618,1.78403 v 0.80382 c 0.3485,-0.0569 0.7049949,-0.09 1.0694377,-0.09 0.3654073,0 0.723869,0.0317 1.0729241,0.09 v -0.80382 z m 5.7041356,0.29767 -0.112934,0.63233 c -0.02331,0.13234 -0.118949,0.24037 -0.247492,0.27955 -0.121782,0.037 -0.237072,0.0842 -0.345092,0.14222 -0.118111,0.063 -0.261576,0.0546 -0.371584,-0.0216 l -0.524959,-0.366 -0.247491,0.24749 0.366705,0.52426 c 0.07722,0.11076 0.08532,0.25567 0.02092,0.37437 -0.05721,0.10703 -0.103558,0.21893 -0.140129,0.34022 -0.03906,0.12827 -0.146788,0.22394 -0.278863,0.24748 l -0.632321,0.11578 v 0.34787 l 0.632321,0.11359 c 0.132787,0.024 0.240684,0.12093 0.278863,0.25027 0.03658,0.12132 0.08297,0.23254 0.140129,0.33953 0.06441,0.11874 0.05631,0.26359 -0.02092,0.37437 l -0.366705,0.52427 0.247491,0.24748 0.524959,-0.366 c 0.11014,-0.0761 0.2536,-0.0842 0.371584,-0.0209 0.107139,0.0572 0.220116,0.10278 0.342304,0.13944 0.129622,0.0384 0.226504,0.14651 0.25028,0.27955 l 0.112934,0.63233 h 0.34579 l 0.115729,-0.63511 c 0.02425,-0.13128 0.119734,-0.23805 0.247491,-0.27677 0.120739,-0.0363 0.234472,-0.082 0.342303,-0.13945 0.117996,-0.0632 0.261442,-0.0551 0.371584,0.0209 l 0.527051,0.3667 0.248188,-0.2454 -0.366705,-0.52704 c -0.07722,-0.11076 -0.08531,-0.25568 -0.02091,-0.37438 0.05722,-0.10715 0.10285,-0.21824 0.139432,-0.33952 0.03829,-0.12965 0.146507,-0.2265 0.27956,-0.25026 l 0.63232,-0.11359 v -0.34787 l -0.632326,-0.11583 c -0.132345,-0.0233 -0.240381,-0.119 -0.27956,-0.24748 -0.03659,-0.12144 -0.08227,-0.23323 -0.139431,-0.34022 -0.06412,-0.11861 -0.05602,-0.26303 0.02091,-0.37366 l 0.366706,-0.52707 -0.248189,-0.24539 -0.52705,0.36671 c -0.110629,0.0769 -0.255154,0.085 -0.373675,0.0209 -0.107474,-0.058 -0.219388,-0.10548 -0.340211,-0.14223 -0.127758,-0.0388 -0.223236,-0.14547 -0.247492,-0.27676 l -0.115729,-0.63232 z m -2.181402,1.68922 c -0.641783,-0.34067 -1.3542124,-0.54658 -2.0949565,-0.54658 v 0.3458 c 0.010818,0.4866 -0.7246856,0.4866 -0.7138893,0 v -0.34371 c -2.5364193,0.15216 -4.6209578,1.91206 -5.290025,4.27009 h 2.7893239 c 0.5870691,0 1.0729241,0.48237 1.0729241,1.06944 -0.0067,2.03896 0.012235,4.09556 -0.00631,6.12661 v 0 c 0.4573349,0.14897 0.9359981,0.2499 1.4340517,0.28444 v -0.34231 c -0.00232,-0.19631 0.1543585,-0.35767 0.3506713,-0.36112 0.2012233,-0.004 0.3655876,0.15988 0.3632179,0.36112 v 0.34022 c 2.9692629,-0.17863 5.3336809,-2.5458 5.5124169,-5.51521 h -0.516594 c -0.476389,0.0228 -0.51055,-0.69181 -0.03416,-0.71458 0.180734,-3e-4 0.367681,0 0.550751,0 -0.02489,-0.39329 -0.09206,-0.774 -0.189625,-1.14264 -0.130861,0.38453 -0.310263,0.57096 -0.648355,0.57096 h -0.450368 c -0.314718,-6.1e-4 -0.588616,-0.23027 -0.642779,-0.54029 l -0.08714,-0.4901 c -0.01503,-0.006 -0.02969,-0.0103 -0.04462,-0.018 l -0.411322,0.28444 c 3e-6,9.3e-4 3e-6,0.001 0,0.003 -0.257723,0.17752 -0.611114,0.14455 -0.832405,-0.0766 l -0.319298,-0.31852 c -0.221241,-0.22128 -0.253462,-0.57468 -0.07599,-0.83241 -3e-6,-9.1e-4 -3e-6,-10e-4 0,-0.003 l 0.28444,-0.40854 c -0.0063,-0.0148 -0.01211,-0.0298 -0.01812,-0.0447 l -0.490101,-0.09 c -0.307945,-0.0559 -0.5368927,-0.32665 -0.5375083,-0.63998 -3.9e-6,-9.2e-4 -3.9e-6,-10e-4 0,-0.003 v -0.45036 c 6.13e-4,-0.31473 0.2295693,-0.58867 0.5395993,-0.64276 l 0.490101,-0.0872 z m 2.355692,-0.33534 c 0.733116,0 1.332963,0.60333 1.332963,1.33646 0,0.73311 -0.599847,1.33295 -1.332963,1.33295 -0.733117,0 -1.335753,-0.59984 -1.335753,-1.33295 0,-0.73313 0.602636,-1.33646 1.335753,-1.33646 z m 0,0.71458 c -0.349969,0 -0.621866,0.27191 -0.621866,0.62188 0,0.34996 0.271897,0.61908 0.621866,0.61908 0.349966,0 0.619074,-0.26912 0.619074,-0.61908 0,-0.34997 -0.269108,-0.62188 -0.619074,-0.62188 z m -4.8138676,1.204 c 0.096694,-10e-4 0.1897728,0.0367 0.2579479,0.10522 l 0.3555498,0.35554 c 0.096475,0.0957 0.1302535,0.23785 0.087151,0.36671 l -0.3374242,1.01506 v 0.71459 c 0.512094,0.15601 0.890966,0.62873 0.890966,1.18934 0,0.22004 -0.063106,0.42522 -0.164529,0.60583 l 1.2925291,1.29463 0.955801,0.47684 c 0.120971,0.0601 0.197606,0.18351 0.197992,0.31862 v 0.50614 c -7.84e-4,0.19602 -0.15951,0.35475 -0.355549,0.35554 h -0.506137 c -0.134493,1.3e-4 -0.257651,-0.0752 -0.3186,-0.19522 l -0.479644,-0.95858 -1.298803,-1.2988 c -0.1725088,0.0908 -0.3654317,0.1471 -0.5723655,0.1471 -0.6857297,0 -1.2486075,-0.56635 -1.2486075,-1.2521 0,-0.5615 0.37974,-1.03479 0.8930575,-1.19005 v -0.71388 l -0.3402124,-1.01506 c -0.043105,-0.12884 -0.00927,-0.27101 0.087151,-0.36671 l 0.3555497,-0.35554 c 0.065785,-0.0662 0.1548793,-0.10406 0.2481874,-0.10522 z m 6.5525756,1.47588 v 0.003 l 0.0028,-0.003 c -6.81e-4,6.2e-4 -0.0022,-6.2e-4 -0.0028,0 z m -12.9712976,1.38038 c -0.2039189,0 -0.3583381,0.15162 -0.3583381,0.35554 v 4.64027 h 3.214589 c 0.197128,7.8e-4 0.3563021,0.16121 0.3555497,0.35835 v 1.07012 c 0,0.20391 0.1516312,0.35834 0.3555501,0.35834 0.2039277,0 0.3583395,-0.15443 0.3583395,-0.35834 v -6.06874 c 0,-0.20392 -0.1544193,-0.35554 -0.3583395,-0.35554 z m 6.4236017,0.35554 c -0.2999161,0 -0.5347182,0.23481 -0.5347182,0.53473 0,0.29992 0.2348021,0.53819 0.5347182,0.53819 0.2999174,0 0.5347196,-0.23827 0.5347196,-0.53819 0,-0.29992 -0.2348022,-0.53473 -0.5347196,-0.53473 z m -6.1022116,0.35834 c 0.011333,-5.4e-4 0.022783,-5.4e-4 0.034155,0 h 0.3583381 c 0.4763902,0 0.4763902,0.71458 0,0.71458 H 2.398607 c -0.4763902,0.0228 -0.5105499,-0.69181 -0.034155,-0.71458 z m 1.4277758,0 c 0.011333,-5.4e-4 0.022783,-5.4e-4 0.034155,0 h 1.4284765 c 0.4763903,0 0.4763903,0.71458 0,0.71458 H 3.8263855 c -0.4762357,0.0227 -0.5103954,-0.69198 -0.034167,-0.71458 z M 2.792506,291.3882 c 0.00117,0 0.00232,0 0.00348,0 0.4920096,0.0103 0.4511735,0.75579 -0.039036,0.71251 H 2.3986109 c -0.4411088,-0.0116 -0.4720707,-0.65669 -0.034155,-0.7111 0.011333,-5.5e-4 0.022782,-5.5e-4 0.034155,0 H 2.756949 c 0.011848,-10e-4 0.023684,-10e-4 0.035558,-10e-4 z m 2.4979131,0 c 0.00119,0 0.00232,0 0.00348,0 0.4919957,0.0103 0.4511478,0.75579 -0.039048,0.71251 H 3.826374 c -0.4411089,-0.0116 -0.4720695,-0.65669 -0.034155,-0.7111 0.4843185,-1.5e-4 0.9758735,0 1.4626336,0 0.011848,-10e-4 0.023685,-10e-4 0.035558,-10e-4 z m -2.9064462,1.42639 c 0.00489,-1e-4 0.00979,-1e-4 0.014643,0 H 2.756954 c 0.4763902,0 0.4763902,0.71459 0,0.71459 H 2.3986148 c -0.4762563,0.009 -0.4908956,-0.70498 -0.014642,-0.71459 z m 1.4277758,0 c 0.00489,-1e-4 0.00979,-1e-4 0.014643,0 h 1.4284725 c 0.4763903,0 0.4763903,0.71459 0,0.71459 H 3.8263906 c -0.4763902,0.009 -0.4910321,-0.70483 -0.014642,-0.71459 z m -2.84161039,2.14236 v 0.71458 c 0,0.20391 0.15511599,0.35834 0.35903619,0.35834 h 3.5701388 c -0.203683,0 -0.3583381,-0.16192 -0.3583381,-0.35834 v -0.71458 z"
       id="path2157"
       inkscape:connector-curvature="0"
       sodipodi:nodetypes="cccccccccccccccccsccccccccccccccccccccccccccccccccccccccccccccccccccccccccccscccccccccccccccccccccccccccccccccssssssssssccccccsccccccccccssccccccccccsscccsssssssssssccssccccsscccccccccccccccccccccsccccssccccsccscccc" />
  </g>
</svg>
