<?xml version="1.0" standalone="no"?>
<!DOCTYPE svg PUBLIC "-//W3C//DTD SVG 20010904//EN"
 "http://www.w3.org/TR/2001/REC-SVG-20010904/DTD/svg10.dtd">
<svg version="1.0" xmlns="http://www.w3.org/2000/svg"
 width="128.000000pt" height="128.000000pt" viewBox="0 0 128.000000 128.000000"
 preserveAspectRatio="xMidYMid meet">

<g transform="translate(0.000000,128.000000) scale(0.100000,-0.100000)"
fill="#000000" stroke="none">
<path d="M485 1154 c-211 -51 -395 -230 -461 -449 -13 -43 -18 -92 -18 -175 0
-98 4 -126 28 -194 25 -73 68 -160 85 -170 4 -3 26 7 48 22 l41 27 -29 50
c-30 51 -69 162 -69 196 0 14 7 19 25 19 24 0 25 3 25 55 0 52 -1 55 -26 55
-25 0 -25 2 -19 43 10 60 38 130 75 188 31 48 33 49 52 32 18 -16 20 -15 55
20 35 35 36 37 19 56 -16 18 -16 20 13 40 53 38 157 81 210 88 50 6 51 5 51
-21 0 -25 3 -26 50 -26 47 0 50 1 50 26 0 26 1 27 51 21 53 -7 157 -50 210
-88 29 -20 29 -22 13 -40 -17 -19 -16 -21 19 -56 35 -35 37 -36 55 -20 19 17
21 16 52 -32 37 -58 65 -128 75 -188 6 -41 6 -43 -19 -43 -25 0 -26 -3 -26
-55 0 -52 1 -55 25 -55 14 0 25 -6 25 -13 0 -35 -35 -139 -64 -193 l-34 -61
22 -13 c11 -7 31 -19 43 -27 21 -14 23 -12 49 29 15 24 41 81 58 128 26 75 30
98 30 200 0 83 -5 132 -18 175 -66 221 -251 399 -466 449 -81 19 -225 19 -305
0z"/>
<path d="M785 730 c-71 -50 -139 -90 -150 -90 -11 0 -34 -9 -52 -20 -85 -51
-44 -190 56 -190 50 0 88 30 102 82 6 22 51 101 100 174 49 74 86 134 82 134
-5 -1 -66 -41 -138 -90z"/>
</g>
</svg>
